<svg width="18" height="19" viewBox="0 0 18 19" fill="none" xmlns="http://www.w3.org/2000/svg">
<title>Instagram</title>
<path fill-rule="evenodd" clip-rule="evenodd" d="M5.28999 0.991399C6.24999 0.941406 6.55999 0.941406 8.99999 0.941406C11.44 0.941406 11.75 0.941406 12.72 0.991399C13.4651 1.00749 14.2022 1.14947 14.9 1.41134C16.1042 1.8878 17.0518 2.84977 17.51 4.06096C17.7719 4.75865 17.9139 5.49561 17.93 6.24065C17.98 7.20051 17.98 7.51047 17.98 9.95012C17.98 11.4375 17.9614 12.1185 17.9469 12.65C17.9376 12.9903 17.93 13.2693 17.93 13.6596C17.9139 14.4046 17.7719 15.1416 17.51 15.8393C17.0426 17.0469 16.0878 18.0016 14.88 18.4689C14.1822 18.7308 13.4451 18.8728 12.7 18.8889C11.74 18.9388 11.43 18.9388 8.99027 18.9388H8.98999C7.50235 18.9388 6.82135 18.9203 6.28974 18.9058C5.94941 18.8965 5.67031 18.8889 5.27999 18.8889C4.53485 18.8728 3.79779 18.7308 3.1 18.4689C1.89018 17.9994 0.935014 17.0407 0.469999 15.8293C0.208096 15.1316 0.0660938 14.3946 0.0499999 13.6496C0 12.6897 0 12.3798 0 9.94012C0 7.50047 0 7.19052 0.0499999 6.22065C0.0660938 5.47561 0.208096 4.73866 0.469999 4.04096C0.939608 2.83132 1.8984 1.87629 3.11 1.41134C3.80779 1.14947 4.54485 1.00749 5.28999 0.991399ZM12.6406 2.61249C11.6906 2.5625 11.4006 2.5625 9.00061 2.5625V2.5825C7.52013 2.5825 6.84346 2.60136 6.32148 2.61592C5.99376 2.62505 5.72702 2.63249 5.36062 2.63249C4.79035 2.63982 4.22553 2.74465 3.69062 2.94245C2.91752 3.24733 2.30556 3.85921 2.00062 4.6322C1.8028 5.16704 1.69796 5.73177 1.69062 6.30196C1.64062 7.25183 1.64062 7.53179 1.64062 9.94144C1.64062 11.4217 1.65949 12.0983 1.67405 12.6202C1.68319 12.9479 1.69062 13.2146 1.69062 13.5809C1.69796 14.1511 1.8028 14.7158 2.00062 15.2507C2.30556 16.0237 2.91752 16.6355 3.69062 16.9404C4.22553 17.1382 4.79035 17.2431 5.36062 17.2504C6.31062 17.3004 6.59061 17.3004 9.00061 17.3004C10.4811 17.3004 11.1578 17.2815 11.6797 17.267C12.0075 17.2578 12.2742 17.2504 12.6406 17.2504C13.2109 17.2431 13.7757 17.1382 14.3106 16.9404C15.0837 16.6355 15.6957 16.0237 16.0006 15.2507C16.1984 14.7158 16.3033 14.1511 16.3106 13.5809C16.3606 12.6311 16.3606 12.3511 16.3606 9.94144C16.3606 8.46117 16.3417 7.78459 16.3272 7.26269C16.318 6.93502 16.3106 6.66832 16.3106 6.30196C16.3033 5.73177 16.1984 5.16704 16.0006 4.6322C15.6957 3.85921 15.0837 3.24733 14.3106 2.94245C13.7769 2.73783 13.212 2.62622 12.6406 2.61249Z" fill="white" ></path>
<path fill-rule="evenodd" clip-rule="evenodd" d="M4.37891 9.93965C4.37891 7.38846 6.44735 5.32031 8.9989 5.32031C10.2242 5.32031 11.3993 5.80699 12.2657 6.67329C13.1321 7.53958 13.6189 8.71453 13.6189 9.93965C13.6189 12.4908 11.5505 14.559 8.9989 14.559C6.44735 14.559 4.37891 12.4908 4.37891 9.93965ZM6 9.94043C6 11.5973 7.34315 12.9404 9 12.9404C9.79565 12.9404 10.5587 12.6244 11.1213 12.0617C11.6839 11.4991 12 10.7361 12 9.94043C12 8.28358 10.6569 6.94043 9 6.94043C7.34315 6.94043 6 8.28358 6 9.94043Z" fill="white" ></path>
<path fill-rule="evenodd" clip-rule="evenodd" d="M13.7988 6.2225C14.3952 6.2225 14.8788 5.73897 14.8788 5.1425C14.8788 4.54603 14.3952 4.0625 13.7988 4.0625C13.2023 4.0625 12.7188 4.54603 12.7188 5.1425C12.7188 5.73897 13.2023 6.2225 13.7988 6.2225Z" fill="white" ></path>
</svg>