<?xml version="1.0" encoding="UTF-8" standalone="no"?>
<!-- Created with Inkscape (http://www.inkscape.org/) -->

<svg
   xmlns:dc="http://purl.org/dc/elements/1.1/"
   xmlns:cc="http://creativecommons.org/ns#"
   xmlns:rdf="http://www.w3.org/1999/02/22-rdf-syntax-ns#"
   xmlns:svg="http://www.w3.org/2000/svg"
   xmlns="http://www.w3.org/2000/svg"
   xmlns:xlink="http://www.w3.org/1999/xlink"
   xmlns:sodipodi="http://sodipodi.sourceforge.net/DTD/sodipodi-0.dtd"
   xmlns:inkscape="http://www.inkscape.org/namespaces/inkscape"
   width="232.03958mm"
   height="29.897917mm"
   viewBox="0 0 123.03958 29.897917"
   version="1.1"
   id="svg8"
   inkscape:version="0.92.5 (2060ec1f9f, 2020-04-08)"
   sodipodi:docname="crypto.com arena logo.svg">
  <g
     inkscape:label="Layer 1"
     inkscape:groupmode="layer"
     id="layer1"
     transform="translate(-55.836859,-140.13179)">
    <g
       id="Symbols"
       transform="matrix(0.56733394,0,0,0.56411164,55.836859,140.13179)"
       style="fill:none;fill-rule:evenodd;stroke:none;stroke-width:1">
      <g
         id="crypto_arena_logo"
         style="fill-rule:nonzero">
        <g
           transform="translate(0,11)"
           id="Group"
           style="fill:#ffffff">
          <path
             id="Path"
             d="M 10.557014,26.318182 C 4.4852054,26.318182 0,21.590909 0,15.787879 0,9.9848485 4.4852054,5.1515151 10.602782,5.1515151 c 3.874973,0 6.270134,1.4242425 8.161853,3.5000001 l -2.898602,3.1060608 c -1.434045,-1.5 -2.94437,-2.5303033 -5.293763,-2.5303033 -3.4020437,0 -5.8734834,2.9242423 -5.8734834,6.5000003 0,3.651515 2.5172072,6.575757 6.1175764,6.575757 2.212091,0 3.829206,-1.030303 5.293763,-2.530303 l 2.822323,2.772728 c -2.029022,2.196969 -4.393671,3.772727 -8.375435,3.772727 z"
             inkscape:connector-curvature="0" />
          <path
             id="path929"
             d="M 27.796069,26.318182 H 23.112538 V 5.1818182 h 4.683531 v 4.9545458 c 1.281487,-3.0303034 3.63088,-5.106061 7.231249,-4.9545458 v 4.9242428 h -0.274604 c -4.10381,0 -6.956645,2.651515 -6.956645,8.030303 z"
             inkscape:connector-curvature="0" />
          <polygon
             points="54.692046,5.1363636 59.54339,5.1363636 49.199957,32 44.455403,32 46.713262,26.318182 37.849642,5.1363636 42.838288,5.1363636 48.879586,20.787879 "
             id="polygon931" />
          <path
             id="Shape"
             d="m 74.433052,26.272727 c -3.371532,0 -5.492088,-1.696969 -6.926134,-3.575757 V 32 h -4.68353 V 5.1363636 h 4.68353 v 3.8030303 c 1.510325,-2.1060606 3.630881,-3.8030303 6.926134,-3.8030303 4.836089,0 9.519619,3.8030303 9.519619,10.5606064 0,6.772727 -4.653019,10.575757 -9.519619,10.575757 z M 73.34989,9.1818182 c -3.173207,0 -5.965018,2.5757578 -5.965018,6.5303028 0,3.954546 2.791811,6.530303 5.965018,6.530303 3.218974,0 5.842972,-2.5 5.842972,-6.530303 0,-4 -2.669765,-6.5303028 -5.842972,-6.5303028 z"
             inkscape:connector-curvature="0" />
          <path
             id="path934"
             d="m 94.20457,9.5606061 v 9.9545459 c 0,1.80303 0.915348,2.530303 2.517207,2.530303 h 1.830696 V 26.19697 H 95.348755 C 91.946711,26.18182 89.521039,24.681818 89.521039,20.242424 V 9.5606061 H 86.927553 V 5.5757576 h 2.593486 V 0 h 4.683531 v 5.5757576 h 4.347903 v 3.9848485 z"
             inkscape:connector-curvature="0" />
          <path
             id="path936"
             d="m 113.36585,26.318182 c -6.22436,0 -10.83161,-4.727273 -10.83161,-10.530303 0,-5.8333335 4.63776,-10.6363639 10.90789,-10.6363639 6.27014,0 10.87739,4.7272728 10.87739,10.5606059 0,5.803031 -4.65302,10.606061 -10.95367,10.606061 z m 0,-17.1060608 c -3.75292,0 -6.14808,2.9242428 -6.14808,6.4999998 0,3.606061 2.59348,6.575758 6.22436,6.575758 3.78344,0 6.19386,-2.924243 6.19386,-6.5 0,-3.621212 -2.59349,-6.5757578 -6.27014,-6.5757578 z"
             inkscape:connector-curvature="0" />
          <path
             id="path938"
             d="m 169.06478,26.318182 c -6.22436,0 -10.83161,-4.727273 -10.83161,-10.530303 0,-5.8333335 4.63776,-10.6363639 10.90789,-10.6363639 6.27014,0 10.87739,4.7272728 10.87739,10.5606059 0,5.803031 -4.65302,10.606061 -10.95367,10.606061 z m 0,-17.1060608 c -3.75292,0 -6.14808,2.9242428 -6.14808,6.4999998 0,3.606061 2.59348,6.575758 6.22436,6.575758 3.78344,0 6.19386,-2.924243 6.19386,-6.5 0,-3.621212 -2.59349,-6.5757578 -6.27014,-6.5757578 z"
             inkscape:connector-curvature="0" />
          <path
             id="path940"
             d="m 207.84503,5.1363636 c 4.45469,0 7.15497,2.8030303 7.15497,7.7575754 V 26.30303 h -4.68353 V 14.318182 c 0,-3.227273 -1.51033,-4.9545456 -4.13432,-4.9545456 -2.54772,0 -4.37842,1.7727276 -4.37842,5.0303026 V 26.30303 H 197.1202 V 14.272727 c 0,-3.151515 -1.54083,-4.9242421 -4.13432,-4.9242421 -2.59349,0 -4.37842,1.9242421 -4.37842,5.0757571 V 26.30303 h -4.68353 V 5.1363636 h 4.68353 v 3.5 c 1.312,-1.8030303 3.09693,-3.5 6.22437,-3.5 2.94437,0 4.98865,1.4242425 6.07181,3.5757576 1.67814,-2.1515151 3.84446,-3.5757576 6.94139,-3.5757576 z"
             inkscape:connector-curvature="0" />
          <path
             id="path942"
             d="m 132.87802,22.045455 v 2.348484 c 0,0.106061 -0.0458,0.181819 -0.1373,0.227273 l -2.04428,1.166667 c -0.0915,0.04545 -0.18307,0.04545 -0.2746,0 l -2.04428,-1.166667 c -0.0763,-0.04545 -0.1373,-0.136364 -0.1373,-0.227273 v -2.348484 c 0,-0.09091 0.061,-0.181819 0.1373,-0.227273 l 2.04428,-1.166667 c 0.0763,-0.04545 0.18307,-0.04545 0.2746,0 l 2.04428,1.166667 c 0.0915,0.04545 0.1373,0.136363 0.1373,0.227273 z"
             inkscape:connector-curvature="0" />
          <path
             id="path944"
             d="M 147.12694,26.287879 C 141.05513,26.166667 136.66146,21.363636 136.76825,15.560606 136.87504,9.7575758 141.46704,5 147.56936,5.1212121 c 3.87497,0.075758 6.23962,1.5454546 8.10083,3.6515152 l -2.95962,3.0606057 c -1.40354,-1.530303 -2.88335,-2.5909088 -5.248,-2.6363633 -3.40204,-0.060606 -5.93451,2.8030303 -6.01079,6.3787883 -0.0763,3.651515 2.37991,6.621212 5.98028,6.681818 2.21209,0.04545 3.84446,-0.969697 5.35478,-2.439394 l 2.77656,2.818182 c -2.05953,2.196969 -4.43944,3.727272 -8.43646,3.651515 z"
             inkscape:connector-curvature="0" />
        </g>
      </g>
    </g>
  </g>

</svg>
