<svg viewBox="0 0 1489.2 260.56" xmlns="http://www.w3.org/2000/svg">
    <path transform="translate(0, -1480)"
        d="m696.85 1619.28c0-34.81.09-69.62-.12-104.43-.03-4.26 1.47-5.92 5.22-7.16 20.66-6.81 41.66-11.72 63.42-13.41 11.97-.93 23.9-2.64 35.93-2.13 18.05.77 35.67 3.59 51.84 12.3 2.3 1.24 4.35 1.27 6.77.36 17.55-6.61 35.79-9.63 54.42-11.67 20.47-2.24 40.27-.32 59.42 6.56 23.6 8.48 38.58 24.75 43.39 50.07 2.36 12.44 2.3 24.96 2.47 37.36.61 44.99.24 89.99.24 134.99 0 7.04-.03 7.06-6.99 7.07-15.46.02-30.93-.19-46.38.11-5.18.1-6.65-1.54-6.63-6.66.18-43.81.07-87.62.12-131.43.01-9.51-.74-18.83-3.94-27.9-3.69-10.45-11.77-15.45-21.78-17.8-14.9-3.5-29.52-1.38-43.96 3.05-3.24.99-4.25 2.32-3.42 5.82 2.12 8.93 2.2 18.17 2.26 27.25.29 46.86.14 93.73.13 140.6 0 6.93-.04 6.95-7.11 6.96-15.29.01-30.58.01-45.87 0-7.41 0-7.44-.03-7.44-7.69 0-43.98-.02-87.96 0-131.94 0-9.5-.69-18.81-3.35-28.09-2.58-9.01-8.52-13.84-16.9-15.73-15.5-3.48-30.97-2.41-46.33 1.58-4.2 1.09-5.56 3.01-5.55 7.36.15 55.53.1 111.05.09 166.58q0 7.91-8.13 7.92c-15.46 0-30.92-.12-46.38.07-4.21.05-5.53-1.35-5.51-5.56.14-34.81.08-69.62.07-104.43zm-96.96 109.6c-18.17 0-36.36.48-54.52-.11-26.42-.87-51.58-6.68-74.12-21.42-16.7-10.93-27.38-26.27-34.23-44.77-8.09-21.84-9.47-44.58-6.99-67.17 2.47-22.49 11.28-43.17 26.02-60.84 19.32-23.18 44.61-35.04 74.1-39.19 13.18-1.86 26.34-2.77 39.54-1.17 17.91 2.17 35.37 5.98 50.71 16.25 20.95 14.02 32.28 34.28 37.75 58.34 2.95 12.95 3.47 26.19 3.63 39.31.47 38.19.07 76.39.28 114.59.03 5.18-1.51 6.69-6.63 6.62-18.51-.27-37.03-.11-55.54-.11v-.32zm2.15-88.71c.31-12.48.09-28.24-1.2-43.95-.9-10.88-3.66-21.39-9.18-30.84-6.53-11.19-16.71-17.02-29.44-19.52-30.65-6.02-58.07 8.28-68.27 40.04-3.63 11.29-3.25 23.14-2.86 34.77.29 8.51 2.17 17 5.84 24.9 10.72 23.07 30.82 31.34 54.22 33.07 15.03 1.11 30.21.14 45.32.35 4.14.06 5.74-1.21 5.64-5.48-.23-10.01-.07-20.03-.07-33.33zm-370.13 18.07c0 21.57-.1 43.14.08 64.7.04 4.43-.92 6.23-5.84 6.2-36.87-.24-73.75.23-110.61-.41-24.49-.42-48.07-5.96-69.38-18.54-17.21-10.16-29.19-24.95-36.8-43.56-6.17-15.09-9.09-30.6-9.27-46.83-.14-12.66-.56-25.21 3.07-37.61 5.1-17.42 12.05-33.83 23.87-47.82 17.94-21.23 40.94-33.27 68.21-38.05 13.63-2.39 27.27-3.5 40.98-2.34 21.31 1.8 41.98 6.04 59.35 19.79 9.43 7.46 16.69 16.51 22.47 27.23 10.63 19.73 13.45 40.93 13.81 62.72.3 18.17.06 36.34.07 54.51zm-61.85-20.95c0-7.64.03-15.28 0-22.93-.05-11.88-1.24-23.65-3.85-35.25-4.4-19.56-17.03-30.32-39.43-33.81-28.06-4.38-53.54 10.46-62.58 36.52-6.59 19-6.37 38.28-.9 57.35 6.58 22.95 30.47 39.42 56.39 39.65 14.95.13 29.9-.05 44.85.17 4.2.06 5.66-1.32 5.59-5.53-.2-12.05-.07-24.11-.07-36.17zm1198.6 96.71c-63.34 1.38-120.01-56.34-119.06-120.37.95-64.12 54.14-119.78 120.8-118.81 66.31.97 118.33 53.35 117.89 120.73-.46 69.94-59.08 120.01-119.62 118.46zm-64.29-121.44c-1.88 36.72 29.65 67.08 64.26 67.08 37.55 0 64.31-29.62 65.03-62.71.86-39.16-25.89-65.46-63.41-66.87-37.04-1.39-65.98 29.24-65.88 62.5zm-145.23 121.35c-24.12.77-47.97-7.41-69.03-23.17-18.58-13.9-30.25-32.68-36.96-54.98-5.7-18.94-6.4-38.28-4.28-57.36 5.37-48.24 34.04-88.08 83.41-101.02 16.87-4.42 34.07-6.17 51.78-3.29 15.64 2.54 31.2 4.76 45.03 12.93 16.42 9.7 13.72 6.84 5.84 21.21-4.98 9.08-10.47 17.88-15.52 26.92-1.74 3.11-3.19 3.48-6.26 1.46-15.76-10.37-33.08-13.85-51.74-11.31-27.36 3.72-45.5 19.18-51.22 45.6-2.79 12.91-3.6 25.96-.57 39.56 2.2 9.89 4.93 19.1 10.25 27.46 8.43 13.26 21.29 20.08 36.38 22.83 19.44 3.54 37.79.46 54.58-10.27 2.6-1.66 4.33-1.74 6.37.94 8.12 10.68 16.36 21.28 24.72 31.76 2.17 2.72 1.48 4.24-.89 6.25-11.1 9.4-24.09 15.04-37.78 19.33-13.57 4.26-27.53 5.44-44.13 5.15zm-893.66-73.02c0-20.37-.77-40.78.19-61.11 1.3-27.52 7.67-53.51 27.71-74.31 13.07-13.56 29.23-21.43 47.15-25.78 18.48-4.49 37.36-6.23 56.36-5.39 11.12.49 22.27 1.21 33.28 3.16 1.45.26 3.21-.13 2.5 2.46-4.12 15.05-8.3 30.08-12.16 45.2-1.12 4.36-2.73 5.47-7.32 4.35-14.54-3.57-29.37-5.53-44.15-1.85-16.62 4.14-28.75 14.24-35.77 29.96-4.31 9.65-6.74 19.74-6.7 30.48.14 38.2-.07 76.4.11 114.59.02 5.1-1.35 6.77-6.56 6.67-16.13-.3-32.27-.27-48.41-.02-4.81.07-6.46-1.28-6.4-6.27.25-20.71.11-41.42.11-62.13h.06z"
        fill="#ffffff" />
</svg>