<?xml version="1.0" encoding="utf-8"?>
<!-- Generator: Adobe Illustrator 19.2.1, SVG Export Plug-In . SVG Version: 6.00 Build 0)  -->
<svg version="1.1" id="layer" xmlns="http://www.w3.org/2000/svg" xmlns:xlink="http://www.w3.org/1999/xlink" x="0px" y="0px"
	 viewBox="0 0 652 250" style="enable-background:new 0 0 652 652;" xml:space="preserve">
<style type="text/css">
	.st0{fill:#ffffff;}
	.st1{fill-rule:evenodd;clip-rule:evenodd;fill:#ffffff;}
</style>
<path class="st0" transform="translate(0 -200)" d="M104,364.6c0.9,0.5,2,0.2,2.5-0.7c0.5-0.9,0.2-2-0.7-2.5c-0.9-0.5-2-0.2-2.5,0.7
	C102.8,363,103.1,364.1,104,364.6 M78.6,320.5c0,1,0.8,1.8,1.8,1.8c1,0,1.8-0.8,1.8-1.8c0-1-0.8-1.8-1.8-1.8
	C79.4,318.7,78.6,319.5,78.6,320.5 M105.8,280c0.9-0.5,1.2-1.6,0.7-2.5c-0.5-0.9-1.6-1.2-2.5-0.7c-0.9,0.5-1.2,1.6-0.7,2.5
	C103.9,280.2,105,280.6,105.8,280 M154.6,276.9c-0.9-0.5-2-0.2-2.5,0.7c-0.5,0.9-0.2,2,0.7,2.5c0.9,0.5,2,0.2,2.5-0.7
	C155.8,278.5,155.5,277.4,154.6,276.9 M152.8,361.4c-0.9,0.5-1.2,1.6-0.7,2.5c0.5,0.9,1.6,1.2,2.5,0.7c0.9-0.5,1.2-1.6,0.7-2.5
	C154.8,361.2,153.7,360.9,152.8,361.4 M182.8,335.1l53.8-14.4l-53.8-14.4l21.9-29.3l-36.3,4.4l4.4-36.5l-29.3,22l-14.4-54l-14.4,54
	l-29.3-22l4.4,36.4L53.7,277l22,29.4l-53.8,14.4l53.8,14.4l-22,29.3l36.3-4.4l-4.4,36.5l29.2-22l14.4,54l14.3-54l29.3,22.1
	l-4.4-36.5l36.3,4.4L182.8,335.1z M216.4,320.7c0,0-31.7,0-31.7,0c0-2.9-0.2-5.8-0.7-8.6L216.4,320.7z M42.1,320.7
	c0,0,31.7,0,31.7,0c0,2.9,0.2,5.8,0.7,8.6L42.1,320.7z M166.7,255.7l-9.8,16.9c-2.6-1.5-5-2.7-7.8-3.7L166.7,255.7z M156.2,279.9
	c-0.8,1.4-2.6,1.9-4,1.1c-1.4-0.8-1.9-2.6-1.1-4c0.8-1.4,2.6-1.9,4-1.1C156.5,276.7,157,278.5,156.2,279.9 M129.2,233.3v31.8
	c-4.8,0-8.6,0.7-8.6,0.7L129.2,233.3z M103.5,275.9c1.4-0.8,3.2-0.3,4,1.1c0.8,1.4,0.3,3.2-1.1,4c-1.4,0.8-3.2,0.3-4-1.1
	C101.6,278.5,102.1,276.7,103.5,275.9 M101.5,272.6c-2.6,1.5-4.8,3-7.1,4.9l-2.7-21.8L101.5,272.6z M83.4,320.5
	c0,1.6-1.3,2.9-2.9,2.9c-1.6,0-2.9-1.3-2.9-2.9s1.3-2.9,2.9-2.9C82.1,317.6,83.4,318.9,83.4,320.5 M64.4,283.1l16.8,9.8
	c-1.5,2.6-2.6,5-3.7,7.8L64.4,283.1z M64.4,358.4l16.8-9.8c1.5,2.6,3,4.8,4.9,7.1L64.4,358.4z M91.7,385.9l9.8-17
	c2.6,1.5,5,2.6,7.8,3.7L91.7,385.9z M102.4,361.5c0.8-1.4,2.6-1.9,4-1.1c1.4,0.8,1.9,2.6,1.1,4c-0.8,1.4-2.6,1.9-4,1.1
	C102,364.7,101.6,362.9,102.4,361.5 M129.2,408.2c0,0,0-31.8,0-31.8c2.9,0,5.8-0.2,8.6-0.7L129.2,408.2z M155.2,365.6
	c-1.4,0.8-3.2,0.3-4-1.1c-0.8-1.4-0.3-3.2,1.1-4c1.4-0.8,3.2-0.3,4,1.1C157,363,156.6,364.8,155.2,365.6 M157,368.9
	c2.6-1.5,4.8-3,7.1-4.9l2.7,21.9L157,368.9z M129.2,363c-23.3,0-42.2-18.9-42.2-42.3c0-23.4,18.9-42.3,42.2-42.3
	c23.3,0,42.2,18.9,42.2,42.3C171.4,344.1,152.5,363,129.2,363 M194.1,283.1l-16.8,9.8c-1.5-2.7-3-4.8-4.9-7.1L194.1,283.1z
	 M175.1,320.7c0-1.6,1.3-2.9,2.9-2.9c1.6,0,2.9,1.3,2.9,2.9c0,1.6-1.3,2.9-2.9,2.9C176.4,323.6,175.1,322.3,175.1,320.7 M181,340.8
	l13.1,17.6l-16.8-9.8C178.8,345.9,179.9,343.6,181,340.8 M179.8,320.7c0-1-0.8-1.8-1.8-1.8c-1,0-1.8,0.8-1.8,1.8
	c0,1,0.8,1.8,1.8,1.8C179,322.5,179.8,321.7,179.8,320.7"/>
<path class="st1" transform="translate(0 -200)" d="M113.1,344.3c0,0.8,0.5,1.5,1.3,1.9c1.3,0.5,2.7,0.5,3.9,0c0.8-0.3,1.3-1,1.3-1.9c0-0.8-0.5-1.5-1.2-1.8
	c-0.6-0.3-1.2-0.5-1.8-0.6c-0.8-0.2-1.6-0.4-2.4-0.5c-0.4-0.1-0.8-0.2-1.2-0.2c-2.3-0.3-4.5-1.3-6.3-2.9c-0.4-0.5-0.8-1.1-1-1.7
	c-1.6-3.6,0-7.9,3.6-9.5c4.4-2,9.4-2,13.8-0.1c2.6,0.9,4.4,3.4,4.5,6.3H120c-0.2-1.1-1.1-2-2.3-2.1c-1-0.2-2-0.1-2.9,0.3
	c-1,0.4-1.6,1.6-1.2,2.7c0.6,1,1.5,1.6,2.7,1.8c2.1,0.3,4.2,0.8,6.3,1.5c0.9,0.2,1.7,0.5,2.4,1.1c0.7,0.5,1.3,1.2,1.7,1.9
	c2,3.3,1,7.7-2.4,9.7c-4.1,2-8.8,2.4-13.1,1.1c-3.3-0.6-5.7-3.5-5.7-6.9H113.1z M153,336.1c-0.1-3.4-1.9-6.5-4.7-8.3
	c-4.1-3-9.8-2.7-13.6,0.7c-2.3,2-3.7,4.9-3.8,7.9c-0.4,3.1-0.1,6.2,1,9.1c1.2,2.7,3.5,4.8,6.3,5.7c2.7,1.1,5.7,0.9,8.3-0.5
	c3.6-1.7,6.1-5.3,6.4-9.3h-7c-0.4,1.5-1.2,2.6-2.2,3.3c-2.2,1.5-4.9,0-5.9-3.3c-1-3.3,0-7.2,2.2-8.7c2.2-1.5,4.9,0,5.9,3.3H153z
	 M142.8,318.7v-16.2c-0.2-2.2-2.2-3.8-4.4-3.6c-2,0.2-3.6,1.8-3.6,3.9V321C137.4,319.9,140.1,319.2,142.8,318.7 M123.7,320.9v-18.1
	c0-2.2-1.9-4-4.1-4c-1.9,0-3.6,1.4-3.9,3.3v16.8C118.4,319.2,121.1,319.8,123.7,320.9 M163.2,323.5c-3.2,1.8-7,2-10.4,0.5
	c-5.1-2.1-10.8-2.1-15.9,0c-2.5,1-5.1,1.5-7.8,1.4c-2.7,0-5.3-0.5-7.8-1.4c-5.1-2-10.8-2-15.9,0c-3.3,1.5-7.2,1.3-10.4-0.5l1.8-3.1
	c2.2,1.2,4.9,1.3,7.2,0.3v-30.3h11.3v2.9c0.4-0.4,0.8-0.8,1.2-1.1c5-4.1,12.4-3.4,16.5,1.6c2.1-2.6,5.2-4.1,8.6-4.3
	c6.6-0.3,12.2,4.8,12.5,11.4v19.8c2.3,1,5,0.9,7.2-0.3L163.2,323.5z"/>
<path class="st0" transform="translate(0 -200)"  d="M392.7,363.3L392.7,363.3L392.7,363.3c-3.3-0.3-6.6-0.5-9.8-0.7c-3.2-0.2-6.5-0.3-9.7-0.7
	c-3.3,0.3-6.5,0.5-9.7,0.7c-3.2,0.2-6.5,0.3-9.8,0.7h-0.4c-3.4,0-6.9-0.1-6.9-3.4c0-3.2,1.9-4.1,5-5.5c3.6-1.6,4-4.1,4-13.2v-53
	c0-1.8-0.2-3.2-0.3-3.8c-0.6,0.5-1.6,2.5-2.6,4.7l-0.7,1.4l-32.5,67.7c-1.6,3.3-3.5,5-5.4,5c-2.3,0-3.3-2.1-4.1-3.7l-0.1-0.2
	l-31.8-70.2c-1.6-3.8-2.4-4.2-2.6-4.2c-0.2,0-0.6,0-0.6,3.1v43.7c0,9.1,1.6,18.2,13.2,22.7c2.5,1,4.9,2.3,4.9,5.5
	c0,3.4-3.6,3.4-5.1,3.4c-2.9,0-5.8-0.3-8.6-0.7c-2.8-0.3-5.7-0.7-8.5-0.7c-2.8,0-5.7,0.3-8.5,0.7c-2.8,0.3-5.7,0.7-8.6,0.7
	c-1.6,0-4.1,0-4.1-3.4c0-2.9,2-3.9,4.2-5.1l0.5-0.3c7.8-4.3,10.2-8.5,10.2-17.9v-62.4c0-6.5-2-15-7.6-17.7c-1-0.5-1.8-0.9-2.6-1.2
	c-3.7-1.7-5.5-2.6-5.5-5.2c0-2.4,0.8-3.4,2.8-3.4c2.5,0,5,0.2,7.4,0.3c2.4,0.2,4.9,0.3,7.3,0.3c2.4,0,4.9-0.2,7.3-0.3
	c2.4-0.2,4.9-0.3,7.4-0.3c3.3,0,4.8,0.4,6.2,3.2l31.8,67.2c0.9,1.8,1.6,3.4,2.2,4.7c1,2.1,1.8,3.8,2.2,4.4c0.5-0.5,1.4-2.2,2.1-3.6
	c0.4-0.7,0.8-1.5,1.2-2.3l35.7-69.4c1.8-3.4,2.6-4.2,4.4-4.2c2.5,0,5,0.2,7.4,0.3c2.4,0.2,4.9,0.3,7.3,0.3c2.4,0,4.9-0.2,7.3-0.3
	c2.4-0.2,4.9-0.3,7.4-0.3c0.6,0,1.1,0.2,1.4,0.6c0.5,0.6,0.7,1.5,0.6,2.8c0,2.9-2.8,3.9-7.4,5.6l-0.9,0.3c-5.4,1.8-8,3.1-8,12.7
	v58.8c0,13.6,0.6,22.1,13.1,27c3.3,1.3,5.4,2.2,5.4,5.5C400,363.3,396.1,363.3,392.7,363.3 M456.7,364.3c23.6,0,38.2-19.4,38.2-37.4
	c0-26.2-19.5-32.8-36.8-38.7c-12.9-4.4-24.1-8.2-24.1-19.5c0-9,8.8-13.7,17.4-13.7c11.7,0,25.3,10.2,28.9,21.8l0.2,0.7
	c1.2,3.9,2.2,6.9,5.9,6.9c2.8,0,4.6-1.9,4.6-4.9c0-0.6-0.2-1.8-0.5-4.4c-0.8-5.6-2-15-1.8-21.6c0-2-0.4-4.4-3.9-4.4
	c-1,0-2.2,0.5-3.6,1.2c-1.1,0.5-2.6,1.1-3.2,1.1c-1.8,0-4.2-0.9-7.2-2c-4.9-1.8-11.7-4.4-20.5-4.4c-19,0-34.4,14.9-34.4,33.3
	c0,26.1,20.6,33.3,37.1,39.2c12.7,4.5,23.7,8.4,23.7,19.1c0,10.4-8,17.7-19.5,17.7c-15.5,0-26.8-12.2-32.1-23.6
	c-0.2-0.5-0.4-1-0.7-1.6c-1-2.5-2.3-6-5.8-6c-4.4,0-4.7,2.9-4.7,3.7c0,1.2,0.4,2.7,0.8,4c0.2,0.5,0.3,1.1,0.4,1.5l5.8,22.7
	c0.8,2.8,3.6,3.3,5.3,3.6c0.2,0,0.4,0.1,0.6,0.1c3.1,0.6,6.1,1.3,9,2.1C442.4,362.6,449.3,364.3,456.7,364.3 M568.7,364.3
	c34.7,0,52.2-27.4,52.2-33c0-3.2-2.1-3.6-3.1-3.6c-2.7,0-4.9,2.5-6.7,4.5c-0.4,0.4-0.7,0.8-1.1,1.1c-9.5,9.7-21.7,15.3-33.5,15.3
	c-19.9,0-36-21.3-36-47.5c0-31,11.1-46.1,33.9-46.1c13.9,0,26.8,9.6,36.5,26.9c0.1,0.1,0.2,0.3,0.3,0.5c1,1.9,2.7,5.2,5.2,5.2
	c2.4,0,3.7-2.6,3.7-5.2c0-1.2-0.3-2.9-0.6-4.6c-0.2-1.3-0.4-2.7-0.6-4l-2.4-22.3c-0.3-1.8-1.6-2.8-3.3-2.8c-3.1,0-4.1,1.9-4.9,3.3
	c-0.7,1.3-1,1.8-2.2,1.8c-1.2,0-3.7-1-6.7-2.1c-6.7-2.6-16.7-6.5-28.7-6.5c-15.5,0-29.7,5.1-39.9,14.3c-12.3,11.1-18.8,28-18.8,49.1
	C512,343.4,540.8,364.3,568.7,364.3 M277.4,397.7c0-0.2-0.2-0.5-0.6-0.5c-1.2,0-0.8,1.3-1.9,1.3c-1.2,0-4.8-2.3-9.5-2.3
	c-7.4,0-15.5,4.4-15.5,16.4c0,9.2,7.7,14.4,14.9,14.4c9.1,0,13.7-7.1,13.7-8.4c0-0.4-0.1-0.6-0.5-0.6c-0.7,0-1.3,0.9-1.9,1.4
	c-2.3,2.3-5.7,4.1-9.3,4.1c-5.8,0-10.1-6.3-10.1-12.9c0-9.4,4-12.5,9.5-12.5c3.8,0,7.4,2.5,10.1,7.3c0.2,0.3,0.7,1.3,1.2,1.3
	c0.4,0,0.6-0.6,0.6-1c0-0.5-0.2-1.4-0.3-2.2L277.4,397.7z M315.7,421.4c0,1.4-0.5,3.1-2.2,3.6c-0.4,0.1-1.2,0.3-1.2,1
	c0,0.7,0.6,0.7,1.3,0.7c1.7,0,3.5-0.3,5.2-0.3c1.7,0,3.5,0.3,5.2,0.3c2,0,2.5-0.1,2.5-0.7c0-0.7-0.3-1-0.9-1
	c-1.8-0.1-3.3-0.9-3.3-4.4v-7.3c0-0.6,0.3-0.8,1.4-0.8c1.6,0,2.3,1.1,3,2.4l5.1,9.2c1,1.7,2.5,2.6,3.7,2.6c1.4,0,6.5-0.3,6.5-2.1
	c0-0.5-0.2-0.8-0.7-0.8c-0.4,0-0.9,0.1-1.3,0.1c-0.4,0-0.7-0.3-1.2-0.7c-2.1-2.4-7-11-7-11.7c0-0.4,1.3-0.7,2.1-1.2
	c1.8-1,3.2-2.5,3.2-5.5c0-7.1-6-8.2-11.8-8.2c-1.9,0-5.1,0.3-7.4,0.3c-3.1,0-4.2-0.3-5.3-0.3c-1,0-1.2,0.3-1.2,0.7
	c0,0.7,0.3,1,0.9,1c1.8,0.3,3.3,1,3.3,3.6V421.4z M322.3,400.6c0-1.6,0.4-2.2,2.7-2.2c3.7,0,5.6,3,5.6,6.1c0,4.3-1.6,6.1-5.5,6.1
	c-2.8,0-2.8-1-2.8-1.5V400.6z M377.3,415.6c0,8.2,4.6,11.5,12.5,11.5c9.8,0,14.7-4.9,14.7-14.5v-9.2c0-3.8,0.3-4.5,1.6-5.1
	c0.7-0.3,1.5-0.3,1.5-1c0-0.5-0.1-0.7-1-0.7c-1.3,0-2.6,0.2-3.9,0.2c-1.3,0-2.6-0.2-3.9-0.2c-1.1,0-1.6,0.2-1.6,0.7
	c0,0.7,0.7,1,1.4,1c2.4,0.1,3.5,1.5,3.5,3.7v11c0,4.8-1.9,11-9.6,11c-5.3,0-8.7-3.6-8.7-8.7V402c0-1.6,0.7-2.9,2.1-3.6
	c0.7-0.3,1.3-0.5,1.3-1c0-0.4-0.2-0.7-1.3-0.7c-1.7,0-3.5,0.3-5.2,0.3c-1.7,0-3.5-0.3-5.2-0.3c-2.1,0-2.5,0.2-2.5,0.8
	c0,0.6,0.3,0.9,0.9,0.9c1.8,0,3.3,0.9,3.3,3.6V415.6z M451.4,402c0-1.4,0.1-3.1,1.8-3.6c0.4-0.1,1.6-0.3,1.6-1
	c0-0.7-0.6-0.7-1.3-0.7c-1.7,0-3.5,0.3-5.2,0.3c-1.7,0-3.5-0.3-5.2-0.3c-1.3,0-2.5,0-2.5,0.7c0,0.7,0.3,1,0.9,1
	c1.8,0.1,3.3,0.9,3.3,3.6v19.4c0,1.4-0.3,3.1-2,3.6c-0.4,0.1-1.2,0.3-1.2,1c0,0.7,0.6,0.7,1.5,0.7c1.7,0,3.5-0.3,5.2-0.3
	c1.7,0,3.5,0.3,4.8,0.3c1.3,0,2.5,0,2.5-0.7c0-0.7-0.3-1-0.9-1c-1-0.1-3.3-0.9-3.3-3.6V402z M490.8,425c0.2,0.6,0.9,0.7,1.3,0.7
	c2.6,0.5,5.1,1.4,7.8,1.4c6.4,0,9.7-5.4,9.7-9.5c0-11.9-16-8-16-15.4c0-2.5,2.3-4,4.9-4c3.3,0,7,2.9,7.9,6c0.3,1.1,0.5,1.8,1.3,1.8
	c0.6,0,0.9-0.4,0.9-0.9c0-0.5-0.7-4.4-0.6-6.9c0-0.6-0.1-0.8-0.7-0.8c-0.4,0-1.3,0.6-1.8,0.6c-1.4,0-3.6-1.7-7.3-1.7
	c-5.1,0-8.7,4-8.7,8.5c0,11.8,16,8.4,16,15.4c0,3.2-2.5,5-5.5,5c-4.1,0-7.2-3-8.8-6.4c-0.3-0.6-0.5-1.8-1.4-1.8
	c-0.7,0-0.9,0.3-0.9,0.7c0,0.4,0.2,1,0.3,1.4L490.8,425z M547,420.5c0,2.5-0.3,3.5-1.7,4.2c-0.8,0.4-1.6,0.7-1.6,1.4
	c0,0.7,0.6,0.7,2,0.7c2.9,0,5.8-0.3,8.7-0.3c2.9,0,5.8,0.3,8.7,0.3c2,0,4-2.1,4.5-3.8c0.3-0.9,0.7-2.5,0.7-3.4
	c0-0.4-0.2-0.8-0.7-0.8c-0.7,0-1.1,1.5-2.6,2.9c-1.5,1.4-4,2.8-8.5,2.8c-2.3,0-2.9-0.5-2.9-3.7v-7.4c0-1.1,0.4-1.6,2.5-1.6
	c2.5,0,3.8,0.3,4.8,2c0.5,0.9,0.5,2.2,1.2,2.2c0.8,0,0.8-0.6,0.8-1.2c0-1.3-0.2-2.6-0.2-3.9c0-1.3,0.2-2.6,0.2-3.9
	c0-0.6,0-1.2-0.6-1.2c-0.4,0-0.6,0.1-1.1,1.3c-0.7,1.9-2.6,2.6-5.1,2.6c-1.7,0-2.5-0.2-2.5-0.9v-7.6c0-1.7,0.3-2.1,1.5-2.1h2.8
	c5.1,0,6.3,1.1,6.6,3.8c0,0.4,0.2,1.2,0.9,1.2c0.6,0,0.8-0.3,0.8-0.8c0-1-0.2-1.9-0.2-2.8c0-1,0.2-1.9,0.2-2.9
	c0-0.9-0.9-0.9-1.9-0.9c-3.3,0-6.6,0.3-10,0.3c-3.3,0-6.6,0.1-10-0.3c-0.9,0-1.6,0-1.6,0.7c0,0.7,0.9,1.1,2.2,1.3
	c1.8,0.2,2,3.5,2,5.6V420.5z M603,425c0.2,0.6,0.9,0.7,1.3,0.7c2.6,0.5,5.1,1.4,7.8,1.4c6.4,0,9.7-5.4,9.7-9.5c0-11.9-16-8-16-15.4
	c0-2.5,2.3-4,4.9-4c3.3,0,7,2.9,7.9,6c0.3,1.1,0.5,1.8,1.3,1.8c0.6,0,0.9-0.4,0.9-0.9c0-0.5-0.7-4.4-0.6-6.9c0-0.6-0.1-0.8-0.7-0.8
	c-0.4,0-1.3,0.6-1.8,0.6c-1.4,0-3.6-1.7-7.3-1.7c-5.1,0-8.7,4-8.7,8.5c0,11.8,16,8.4,16,15.4c0,3.2-2.5,5-5.5,5
	c-4.1,0-7.2-3-8.8-6.4c-0.3-0.6-0.5-1.8-1.4-1.8c-0.7,0-0.9,0.3-0.9,0.7c0,0.4,0.2,1,0.3,1.4L603,425z"/>
</svg>
